<svg xmlns="http://www.w3.org/2000/svg" width="572" height="387"><path fill="#9CA5AD" d="m71.352 1.866 2.298-.007c2.562-.007 5.123-.007 7.685-.006l5.54-.011c5.092-.01 10.184-.014 15.275-.017 5.485-.004 10.97-.013 16.454-.022 13.253-.02 26.505-.03 39.757-.039l18.706-.015a131460.556 131460.556 0 0 1 66.176-.04h2.014l10.1-.004h2.026c21.674-.009 43.347-.032 65.021-.065 22.907-.034 45.814-.054 68.72-.057 12.491-.002 24.981-.011 37.471-.036 10.634-.022 21.267-.03 31.9-.02 5.429.004 10.857.002 16.285-.017 4.966-.018 9.93-.017 14.896-.001 1.8.002 3.6-.002 5.4-.014 2.441-.015 4.88-.006 7.32.01l2.136-.031C511.274 1.541 513.666 2.655 517 6c1.463 2.927 1.197 5.676 1.312 8.938.537 9.695 2.663 18.088 9.493 25.273 8.921 7.27 18.196 8.932 29.312 9.219 4.423.2 7.406.77 10.883 3.57 3.41 5.242 2.328 11.869 2.312 17.875l.05 3.84.001 3.715.01 3.382c-.429 3.666-1.445 6.053-3.373 9.188-2.926 1.758-2.926 1.758-6.313 3.125C549.37 98.975 540.93 105.478 536 117c-5.01 13.801-4.755 29.824 1.477 43.16 6.065 11.176 13.577 16.224 24.708 21.733l2.182 1.091 1.972.96C568 185 568 185 570 188c.439 5.44.553 8.61-3 13-2.94 1.84-6.053 3.273-9.188 4.75-7.405 3.695-13.236 7.125-17.812 14.25l-1.242 1.848c-6.245 10.734-7.487 25.604-5.067 37.57C536.68 270.081 541.5 279.819 551 286a111.081 111.081 0 0 0 9.168 3.86c6.93 2.79 6.93 2.79 8.955 5.82 1.801 4.765 1.209 10.075 1.193 15.11-.003 2.072.02 4.142.045 6.214l.002 3.988.01 3.636c-.416 3.764-1.376 6.17-3.373 9.372-4.182 2.041-8.084 2.239-12.688 2.375-10.106.628-19.7 3.7-27.312 10.625-6.022 7.311-8.524 14.31-9.188 23.637-.396 5.53-1.008 9.015-4.812 13.363-3.58 2.438-7.212 2.28-11.391 2.252l-2.274.008c-2.53.008-5.058 0-7.587-.006a5210.162 5210.162 0 0 1-20.562.007c-5.419-.004-10.838.003-16.256.008-10.62.01-21.241.007-31.862.002-8.63-.005-17.26-.006-25.892-.003h-3.718l-7.476.003c-22.723.005-45.447 0-68.17-.011-20.744-.01-41.489-.009-62.234 0a96700.024 96700.024 0 0 1-77.353.008l-3.704-.001c-8.62-.002-17.24 0-25.861.006-10.506.005-21.011.004-31.517-.007-5.362-.005-10.723-.007-16.085 0-4.907.005-9.814.002-14.72-.009-1.777-.002-3.554 0-5.33.004-2.414.006-4.826 0-7.24-.01l-2.094.015C67.15 386.23 63.262 385.519 59 384c-3.453-3.876-3.526-8.215-3.875-13.187C54.144 360.498 50.733 352.165 43 345c-8.973-7.254-19.45-8.321-30.617-8.496C8.44 335.917 6.807 334.77 4 332c-1.48-2.96-1.204-5.99-1.238-9.238l-.025-2.175c-.014-1.521-.024-3.042-.032-4.562a597.786 597.786 0 0 0-.105-6.953c-.01-1.478-.019-2.957-.026-4.435l-.053-2.09c.016-3.502.409-5.436 2.291-8.423 2.822-2.74 5.856-3.869 9.5-5.124 11.361-4.278 17.67-9.513 22.981-20.73 4.657-11.382 6.024-25.358 1.676-37.114-6.18-13.756-14.82-22.553-28.907-28.156-3.212-1.374-3.994-1.905-6.125-4.875-1.204-4.016-1.685-7.218-.128-11.187C5.845 183.627 9.567 182.552 13 181c12.765-5.8 20.541-12.323 26.04-25.488 4.347-13.39 3.023-28.403-3.243-40.914C33.38 110.493 30.547 107.2 27 104l-2.75-2.562c-3.061-2.519-6.366-3.945-10-5.473-8.265-3.544-8.265-3.544-10.42-6.653-1.763-4.912-1.202-10.41-1.2-15.584-.005-2.155-.041-4.309-.08-6.464-.005-1.379-.01-2.757-.01-4.135-.01-1.247-.017-2.494-.026-3.78C3.09 55.38 4.09 53.728 7 51c2.04-.612 2.04-.612 4.195-.602l2.405-.039 2.525.016C28.721 50.045 37.45 47.83 47 39c5.545-6.784 7.645-14.003 8.156-22.64C55.526 10.19 56.405 7.266 61 3c3.521-1.174 6.689-1.142 10.352-1.134Z"/><path fill="#FDF4E4" d="m139.081 66.866 3.972-.007c3.622-.006 7.245-.006 10.867-.004 3.913 0 7.826-.006 11.739-.01 7.66-.009 15.32-.011 22.98-.012 6.226 0 12.454-.003 18.681-.006 17.665-.009 35.33-.013 52.996-.012h5.772c15.444 0 30.889-.01 46.333-.023 15.868-.015 31.736-.022 47.604-.02 8.905 0 17.81-.003 26.714-.014 7.581-.01 15.162-.011 22.743-.005 3.865.004 7.73.004 11.596-.005 4.196-.01 8.391-.003 12.587.005l3.68-.016c9.232.038 18.274.112 25.655 6.263 6.197 6.374 7.45 13.643 7.381 22.146l.014 2.69c.012 2.955.003 5.91-.007 8.865.004 2.126.01 4.252.016 6.378.014 5.763.008 11.525-.001 17.287-.008 6.036 0 12.071.004 18.107.006 10.134-.002 20.269-.016 30.403a12527 12527 0 0 0 .006 35.132c.013 10.062.015 20.123.007 30.185-.004 6.006-.005 12.012.005 18.018.009 5.647.003 11.294-.015 16.941-.004 2.07-.003 4.141.004 6.212.008 2.83-.002 5.66-.017 8.49l.02 2.471c-.067 6.63-1.364 12.114-5.588 17.425-9.425 7.54-18.849 7.399-30.481 7.377l-3.874.005c-3.537.004-7.074.002-10.612-.001-3.82-.003-7.639.001-11.458.004-7.48.004-14.96.003-22.44 0-6.085-.002-12.168-.002-18.252-.001h-2.626l-5.281.001c-16.509.003-33.017 0-49.526-.006-14.145-.004-28.29-.003-42.436.001a96221.243 96221.243 0 0 1-54.586.004h-2.618c-6.068-.002-12.137 0-18.205.002-7.408.003-14.815.002-22.223-.003-3.775-.003-7.55-.004-11.324 0-4.105.003-8.21-.001-12.314-.006l-3.564.007a350.346 350.346 0 0 1-17.465-.454l-3.356-.173c-6.113-.977-10.226-3.835-14.172-8.507-3.674-5.727-4.58-10.579-4.508-17.298l-.019-2.739c-.016-3.01-.003-6.02.01-9.031a3344.68 3344.68 0 0 1-.02-24.106c.01-6.148 0-12.295-.006-18.443-.007-10.323.002-20.645.022-30.968.021-11.93.014-23.858-.008-35.787-.018-10.248-.02-20.496-.01-30.744.006-6.118.007-12.236-.006-18.354-.012-5.753-.004-11.505.02-17.257.005-2.109.003-4.218-.006-6.327-.01-2.883.003-5.765.023-8.648l-.027-2.518c.084-6.252 1.592-11.67 5.982-16.31 8.725-7.559 18.656-6.618 29.634-6.604Z"/><path fill="#172F42" d="m71.352 1.866 2.298-.007c2.562-.007 5.123-.007 7.685-.006l5.54-.011c5.092-.01 10.184-.014 15.275-.017 5.485-.004 10.97-.013 16.454-.022 13.253-.02 26.505-.03 39.757-.039l18.706-.015a131460.556 131460.556 0 0 1 66.176-.04h2.014l10.1-.004h2.026c21.674-.009 43.347-.032 65.021-.065 22.907-.034 45.814-.054 68.72-.057 12.491-.002 24.981-.011 37.471-.036 10.634-.022 21.267-.03 31.9-.02 5.429.004 10.857.002 16.285-.017 4.966-.018 9.93-.017 14.896-.001 1.8.002 3.6-.002 5.4-.014 2.441-.015 4.88-.006 7.32.01l2.136-.031C511.274 1.541 513.666 2.655 517 6c1.463 2.927 1.197 5.676 1.312 8.938.537 9.695 2.663 18.088 9.493 25.273 8.921 7.27 18.196 8.932 29.312 9.219 4.423.2 7.406.77 10.883 3.57 3.41 5.242 2.328 11.869 2.312 17.875l.05 3.84.001 3.715.01 3.382c-.429 3.666-1.445 6.053-3.373 9.188-2.926 1.758-2.926 1.758-6.313 3.125C549.37 98.975 540.93 105.478 536 117c-5.01 13.801-4.755 29.824 1.477 43.16 6.065 11.176 13.577 16.224 24.708 21.733l2.182 1.091 1.972.96C568 185 568 185 570 188c.439 5.44.553 8.61-3 13-2.94 1.84-6.053 3.273-9.188 4.75-7.405 3.695-13.236 7.125-17.812 14.25l-1.242 1.848c-6.245 10.734-7.487 25.604-5.067 37.57C536.68 270.081 541.5 279.819 551 286a111.081 111.081 0 0 0 9.168 3.86c6.93 2.79 6.93 2.79 8.955 5.82 1.801 4.765 1.209 10.075 1.193 15.11-.003 2.072.02 4.142.045 6.214l.002 3.988.01 3.636c-.416 3.764-1.376 6.17-3.373 9.372-4.182 2.041-8.084 2.239-12.688 2.375-10.106.628-19.7 3.7-27.312 10.625-6.022 7.311-8.524 14.31-9.188 23.637-.396 5.53-1.008 9.015-4.812 13.363-3.58 2.438-7.212 2.28-11.391 2.252l-2.274.008c-2.53.008-5.058 0-7.587-.006a5210.162 5210.162 0 0 1-20.562.007c-5.419-.004-10.838.003-16.256.008-10.62.01-21.241.007-31.862.002-8.63-.005-17.26-.006-25.892-.003h-3.718l-7.476.003c-22.723.005-45.447 0-68.17-.011-20.744-.01-41.489-.009-62.234 0a96700.024 96700.024 0 0 1-77.353.008l-3.704-.001c-8.62-.002-17.24 0-25.861.006-10.506.005-21.011.004-31.517-.007-5.362-.005-10.723-.007-16.085 0-4.907.005-9.814.002-14.72-.009-1.777-.002-3.554 0-5.33.004-2.414.006-4.826 0-7.24-.01l-2.094.015C67.15 386.23 63.262 385.519 59 384c-3.453-3.876-3.526-8.215-3.875-13.187C54.144 360.498 50.733 352.165 43 345c-8.973-7.254-19.45-8.321-30.617-8.496C8.44 335.917 6.807 334.77 4 332c-1.48-2.96-1.204-5.99-1.238-9.238l-.025-2.175c-.014-1.521-.024-3.042-.032-4.562a597.786 597.786 0 0 0-.105-6.953c-.01-1.478-.019-2.957-.026-4.435l-.053-2.09c.016-3.502.409-5.436 2.291-8.423 2.822-2.74 5.856-3.869 9.5-5.124 11.361-4.278 17.67-9.513 22.981-20.73 4.657-11.382 6.024-25.358 1.676-37.114-6.18-13.756-14.82-22.553-28.907-28.156-3.212-1.374-3.994-1.905-6.125-4.875-1.204-4.016-1.685-7.218-.128-11.187C5.845 183.627 9.567 182.552 13 181c12.765-5.8 20.541-12.323 26.04-25.488 4.347-13.39 3.023-28.403-3.243-40.914C33.38 110.493 30.547 107.2 27 104l-2.75-2.562c-3.061-2.519-6.366-3.945-10-5.473-8.265-3.544-8.265-3.544-10.42-6.653-1.763-4.912-1.202-10.41-1.2-15.584-.005-2.155-.041-4.309-.08-6.464-.005-1.379-.01-2.757-.01-4.135-.01-1.247-.017-2.494-.026-3.78C3.09 55.38 4.09 53.728 7 51c2.04-.612 2.04-.612 4.195-.602l2.405-.039 2.525.016C28.721 50.045 37.45 47.83 47 39c5.545-6.784 7.645-14.003 8.156-22.64C55.526 10.19 56.405 7.266 61 3c3.521-1.174 6.689-1.142 10.352-1.134ZM74 20l-.78 3.293-1.052 4.34-.51 2.163c-3.071 12.567-10.484 23.543-21.47 30.579C40.458 65.675 31.014 67.645 20 68v10l2.273 1.031C39.623 87.248 39.623 87.248 43 94h2l.793 1.703c1.321 2.514 2.89 4.721 4.52 7.047 9.45 14.876 11.439 32.758 8.472 49.91-3.26 13.865-9.55 25.181-20.453 34.367-2.235 1.89-4.292 3.876-6.332 5.973l2.598 2.273c15.355 13.65 24.2 28.879 25.43 49.676.263 19.255-6.3 35.14-19.118 49.371-6.072 5.948-13.057 8.73-20.91 11.68v11l4.172.848C34.912 320.142 44.032 322.41 53 329l2.027 1.43C66.865 339.6 70.767 352.988 74 367h425l4-15c6.116-13.396 15.605-23.988 29.238-29.984 6.39-2.29 13.142-3.573 19.762-5.016v-11l-2.379-1.102c-6.375-3.05-11.415-6.145-16.621-10.898h-2l-.797-1.758c-1.261-2.35-2.712-4.101-4.453-6.117C515.513 273.109 512.87 257.15 514 241c2.432-17.236 8.595-32.523 22.437-43.625 1.52-1.127 3.04-2.252 4.563-3.375l2-2-2.16-1.687C525.834 178.357 516.756 165.265 514 146c-1.262-20.757 4.166-38.028 17.25-54.25C537.098 85.336 544.947 81.042 553 78V68l-3.078-.262c-14.816-1.435-28.09-5.827-38.246-17.383-6.514-8.608-9.839-16.27-11.281-26.949-.146-2.351-.146-2.351-1.395-3.406a154.21 154.21 0 0 0-6.76-.123l-2.178-.004c-2.44-.002-4.878.002-7.317.007l-5.262-.003c-4.843-.002-9.686.002-14.53.007-5.214.004-10.428.003-15.642.002-9.042 0-18.083.003-27.125.008-13.073.008-26.146.011-39.219.012-21.207.002-42.415.01-63.622.019a258988.88 258988.88 0 0 1-84.767.025c-52.86.01-105.719.028-158.578.05Z"/><path fill="#172F42" d="m135.327 49.86 4.088-.01c3.735-.007 7.47-.01 11.205-.01 4.032-.002 8.065-.01 12.097-.016 8.812-.014 17.624-.02 26.436-.024l16.516-.012c15.252-.012 30.504-.022 45.755-.026H257.343a1902530.582 1902530.582 0 0 0 8.922-.003c15.922-.004 31.844-.021 47.766-.045 16.358-.023 32.716-.036 49.075-.037 9.18 0 18.36-.007 27.54-.025 7.817-.015 15.634-.02 23.45-.012 3.986.004 7.971.003 11.956-.011 3.656-.013 7.31-.012 10.965 0 1.935.003 3.869-.008 5.803-.02 14.067.078 24.492 3.124 34.93 12.641 8.703 9.187 10.564 21.028 10.517 33.23l.014 2.725c.013 2.984.011 5.967.01 8.951a6225.755 6225.755 0 0 1 .044 23.92c0 3.642.005 7.283.01 10.924.019 12.715.027 25.43.026 38.144-.002 11.836.02 23.671.051 35.507.026 10.178.037 20.356.036 30.533 0 6.072.005 12.144.026 18.216.02 5.71.02 11.42.005 17.13-.002 2.09.003 4.18.015 6.27.078 14.44-.75 26.683-10.504 38.2-8.626 8.508-18.39 11.432-30.315 11.535l-3.91-.027c-1.412.005-2.824.01-4.236.019-3.851.016-7.702.008-11.554-.004-4.164-.01-8.328.005-12.493.016-8.147.018-16.294.014-24.442.002-6.624-.009-13.248-.01-19.873-.006l-2.86.002-5.756.004c-17.974.011-35.947-.002-53.92-.023-15.408-.018-30.815-.015-46.222.003a28554.168 28554.168 0 0 1-59.463.014l-2.85-.002c-6.612-.003-13.224.003-19.836.012-8.065.011-16.129.008-24.193-.013-4.11-.01-8.221-.015-12.332-.001-3.77.012-7.539.005-11.309-.016a587.32 587.32 0 0 0-5.987.02c-11.016-.095-20.91-2.221-29.48-9.488-8.135-8.458-11.439-19.097-11.357-30.59l-.016-2.782c-.014-3.054-.007-6.107 0-9.16l-.02-6.596a4505.79 4505.79 0 0 1-.012-17.87c.003-4.98-.003-9.96-.009-14.94-.015-12.425-.011-24.849 0-37.273.01-10.768-.002-21.536-.026-32.304-.024-11.079-.034-22.158-.027-33.237.003-6.21 0-12.421-.017-18.632-.015-5.844-.011-11.687.008-17.53.003-2.138 0-4.276-.01-6.414C85.414 85.596 85.855 72.453 97 61c11.342-10.637 23.447-11.15 38.327-11.14ZM107.75 75.437c-3.75 5.492-4.041 10.04-4.017 16.5l-.014 2.731c-.013 3.02-.011 6.04-.01 9.06a6328.024 6328.024 0 0 0-.044 24.142c-.001 4.91-.009 9.82-.016 14.731-.016 11.586-.021 23.172-.02 34.758.002 11.951-.02 23.902-.051 35.853-.026 10.26-.037 20.521-.036 30.782 0 6.129-.005 12.257-.026 18.385-.02 5.764-.02 11.528-.005 17.293.002 2.114-.003 4.228-.015 6.342-.015 2.89-.006 5.778.01 8.668l-.032 2.524c.084 7.124 2.321 12.183 6.901 17.606 4.77 3.975 8.979 5.55 15.154 5.867l3.731.195c5.761.194 11.513.267 17.277.26l3.9.007c3.53.006 7.059.006 10.588.004 3.823 0 7.645.006 11.468.01 7.47.009 14.941.011 22.411.012 6.074 0 12.147.003 18.22.006 17.243.009 34.485.013 51.728.012H270.476c15.066 0 30.131.01 45.197.023 15.493.015 30.986.022 46.48.02 8.688 0 17.377.003 26.066.014 7.392.01 14.784.011 22.176.005 3.769-.004 7.537-.004 11.305.005 4.09.01 8.18.003 12.271-.005l3.585.016c9.854-.041 19.719-.448 27.444-7.263 4.771-6.168 5.149-12.127 5.147-19.652l.011-2.674c.011-2.963.015-5.926.019-8.89l.02-6.366c.021-6.975.031-13.95.041-20.926l.013-7.206c.019-11.285.033-22.57.041-33.855.01-13.023.036-26.046.077-39.068.03-10.068.045-20.137.048-30.205.002-6.012.011-12.023.036-18.035.024-5.659.028-11.317.018-16.976 0-2.073.006-4.146.02-6.218.639-15.988.639-15.988-6.231-29.837-8.568-8.04-19.173-7.24-30.22-7.226l-3.97-.007c-3.625-.006-7.25-.006-10.874-.004-3.914 0-7.827-.006-11.74-.01-7.664-.009-15.327-.011-22.99-.012-6.23 0-12.461-.003-18.691-.006a98050.67 98050.67 0 0 0-53.014-.012h-5.775c-15.45 0-30.902-.01-46.353-.023-15.872-.015-31.745-.022-47.617-.02-8.908 0-17.817-.003-26.725-.014-7.584-.01-15.169-.011-22.753-.005-3.868.004-7.735.004-11.603-.005-4.198-.01-8.395-.003-12.593.005l-3.682-.016c-10.743.044-20.23.38-27.91 8.7Z"/><path fill="#162F41" d="m386.45 116.664 2.216-.02c1.549-.01 3.098-.015 4.647-.015 2.349-.004 4.696-.04 7.044-.078 9.051-.07 15.641.235 22.85 6.308 5.442 6.41 8.448 12.286 8.152 20.84-.927 5.938-4.14 11.311-7.359 16.301l1.75.688c4.24 2.473 6.913 6.568 8.707 11.097 1.744 7.114 1.718 15.07-2.14 21.442-4.994 6.727-10.114 10.676-18.317 12.773-5.017.49-9.969.577-15.006.521-2.32-.021-4.637 0-6.957.026a1270.93 1270.93 0 0 1-4.463-.016l-2.08.025c-4.74-.092-7.2-1.16-10.494-4.556-1.185-3.554-1.134-6.393-1.145-10.146l-.01-2.194c-.01-2.394-.012-4.789-.013-7.183l-.01-4.996c-.006-3.492-.008-6.984-.007-10.476 0-4.471-.014-8.942-.031-13.413-.011-3.44-.013-6.88-.013-10.32 0-1.649-.005-3.297-.013-4.945-.01-2.308-.007-4.615 0-6.922l-.005-3.977c.24-3.32.667-5.514 2.247-8.428 3.605-2.404 6.28-2.323 10.45-2.336Z"/><path fill="#172E42" d="m186.128 223.485 3.155-.02c3.5-.02 7-.009 10.5.002 2.505-.008 5.01-.016 7.514-.027 6.104-.02 12.208-.021 18.312-.013 4.96.006 9.921.005 14.882-.001l2.139-.003 4.3-.006c13.449-.016 26.897-.007 40.345.01 12.305.014 24.61 0 36.916-.03a12295.112 12295.112 0 0 1 44.314-.026c4.955.002 9.91-.007 14.864-.022 6.669-.02 13.337-.012 20.006.012 2.45.005 4.902.002 7.352-.01 3.34-.017 6.678-.002 10.018.02l2.954-.035c4.578.063 6.662.193 10.442 2.977C436 229 436 229 436 232.625c-1.344 4.536-1.344 4.536-4 6.375-2.768.923-4.406 1.127-7.26 1.131l-2.647.012-2.911-.003-3.09.01c-3.435.008-6.869.01-10.302.011l-7.367.015c-6.681.013-13.363.02-20.045.024l-12.513.012c-11.547.012-23.094.022-34.64.026h-4.485l-4.503.002h-2.257c-12.07.005-24.139.022-36.208.046-12.388.023-24.777.036-37.165.037-6.957 0-13.914.007-20.871.025-6.542.017-13.083.018-19.625.01-2.404-.001-4.808.003-7.211.013-3.276.013-6.552.007-9.828-.004l-2.897.025c-4.857-.037-8.283-.145-12.175-3.392-2.327-3.491-2.503-4.892-2-9 3.457-5.368 8.37-4.563 14.128-4.515Z"/><path fill="#162E41" d="M194.375 112.938 197 115l1.875 1.25c1.967 3.06 1.836 6.311 1.125 9.75-2.332 3.223-4.02 4.643-7.75 6-3.764 0-6.391-1.011-9.89-2.285-5.902-1.788-11.97-1.236-17.618 1.18-3.432 2.178-4.394 4.254-5.742 8.105 1.14 5.418 3.667 8.267 8.152 11.395 4.609 2.598 9.447 4.673 14.325 6.714 8.366 3.526 15.55 7.779 19.636 16.18 2.349 6.518 2.186 12.185-.113 18.711-3.685 6.95-9.526 12.355-16.91 15.07-10.399 2.805-21.448 3.08-31.192-1.972L151 204l-3.375-1.875c-3.097-2.507-4.344-4.358-5.625-8.125.072-3.612.559-5.395 2.688-8.313 2.938-2.144 4.67-2.616 8.312-2.687 1.715.647 3.43 1.306 5.086 2.094C164.67 188.21 169.81 189.706 177 188c2.54-1.068 2.54-1.068 4-3 .125-2.573.125-2.573 0-5-6.28-3.628-12.715-6.894-19.238-10.057-8.763-4.304-17.791-10.125-21.325-19.775-1.847-9.157-1.027-18.015 3.563-26.168 5.013-7.447 12.565-12.263 21.195-14.535 9.733-1.613 20.48-1.522 29.18 3.472ZM308.375 116.688l2.336-.114c3.202.596 4.253 1.922 6.289 4.426.499 2.598.499 2.598.498 5.575l.03 3.39-.024 3.648.028 3.767c.024 3.303.033 6.606.031 9.91-.002 4.641.008 9.282.04 13.923.017 2.469.02 4.937.007 7.406.043 7.085.238 12.762 5.077 18.319 3.425 1.573 6.66 1.736 10.313 1.062 2.81-1.794 4.51-3.019 6-6 .1-1.92.136-3.842.142-5.763l.021-3.661.013-3.974c.01-1.356.022-2.71.034-4.066.052-5.76.1-11.521.116-17.282.01-3.523.04-7.046.081-10.57.019-1.993.016-3.988.013-5.982l.05-3.68.018-3.239c.635-3.453 1.788-4.637 4.512-6.783 2.184-.531 2.184-.531 4.438-.5l2.246-.031c3.291.755 4.916 2.173 7.316 4.531.628 2.843.628 2.843.631 6.17l.038 3.784c-.012 1.362-.026 2.724-.04 4.085 0 1.405.003 2.81.007 4.216a859.5 859.5 0 0 1-.04 8.841 801.584 801.584 0 0 0-.008 11.256c.01 2.905.001 5.81-.014 8.715-.005 1.382-.005 2.764.002 4.145.027 9.693-.875 18.15-6.826 26.1-6.876 6.72-13.866 9.52-23.48 9.754-8.38-.39-15.851-3.072-21.645-9.316-5.16-6.68-7.73-14.17-7.786-22.54l-.03-3.53-.012-3.801-.017-3.915c-.01-2.733-.017-5.466-.02-8.199-.006-3.494-.03-6.989-.058-10.484-.023-3.342-.025-6.685-.03-10.027l-.038-3.795.01-3.539-.011-3.106c.428-3.278 1.427-5.16 3.367-7.814 2.3-1.15 3.815-1.232 6.375-1.313Z"/><path fill="#162F42" d="m225.883 116.467 3.59-.048 3.867.015 3.982-.02c2.78-.01 5.56-.005 8.34.01 3.556.017 7.11-.007 10.666-.042 3.4-.027 6.8-.017 10.2-.01l3.86-.041c9.82.104 9.82.104 12.915 2.99 2.263 3.573 2.439 5.525 1.697 9.679-2.05 2.874-3.612 4.747-7.191 5.399-2.558.093-5.065.037-7.622-.086l-2.677-.069c-2.17-.059-4.34-.148-6.51-.244l.027 2.51c.08 7.813.141 15.625.18 23.438.021 4.017.05 8.033.095 12.05.043 3.877.067 7.754.078 11.631.007 1.478.021 2.956.043 4.434.029 2.074.033 4.145.031 6.219l.027 3.573c-.584 3.821-1.738 5.462-4.481 8.145-4.606 1.256-7.81 1.394-12-1-2.416-3.624-2.243-5.271-2.227-9.583v-2.01c0-2.192.016-4.384.032-6.575l.008-4.56c.008-4 .028-8 .05-12 .02-4.082.03-8.164.04-12.247.02-8.008.055-16.017.097-24.025l-1.848.063c-2.78.084-5.56.136-8.34.187l-2.908.102c-7.162.099-7.162.099-11.017-2.243-2.48-2.772-2.85-3.712-3.2-7.484.313-3.625.313-3.625 1.965-5.818 2.949-2.27 4.536-2.318 8.23-2.34Z"/><path fill="#162E42" d="M169.92 269.922c4.592-.07 9.183-.117 13.775-.15 1.867-.015 3.733-.033 5.6-.057 2.662-.03 5.324-.039 7.986-.043l2.438-.037c4.583.018 7.552.4 11.281 3.365 1.546 3.092 1.294 5.594 1 9-2.12 2.846-3.315 3.877-6.84 4.508l-3.318.01-3.772.038c-1.356-.007-2.71-.016-4.066-.025-1.395.003-2.79.007-4.184.012-2.922.006-5.842-.003-8.764-.022-3.737-.022-7.473-.01-11.21.015-2.88.014-5.76.01-8.64 0-1.377-.003-2.755 0-4.132.01-1.93.01-3.858-.009-5.787-.028l-3.32-.01c-3.687-.631-5.368-1.855-7.967-4.508-.616-3.833-.737-5.95 1.523-9.172 3.435-2.535 6.543-2.507 10.664-2.578l2.625-.081c5.036-.128 10.072-.166 15.108-.247Z"/><path fill="#162F41" d="m269.354 269.725 3.165-.029 3.387.003 3.508-.013c2.444-.006 4.888-.006 7.333-.002 3.74.003 7.478-.02 11.218-.045 2.376-.003 4.752-.003 7.129-.002l3.387-.028 3.165.019 2.774-.002c3.157.458 5.01 1.507 7.58 3.374 2 3 2 3 1.875 6.5-.875 3.5-.875 3.5-2.58 5.193-2.827 1.61-4.657 1.693-7.902 1.711-1.687.02-1.687.02-3.408.038l-3.669-.008-3.78.015c-2.64.007-5.277.007-7.916-.003a839.21 839.21 0 0 0-10.121.038c-3.228.023-6.455.016-9.683.012l-3.662.034-3.417-.028h-2.999c-3.507-.643-5.193-2.053-7.738-4.502-1-2.438-1-2.438-1-5 1.31-3.129 2.218-4.614 5.283-6.127 2.85-.916 5.084-1.133 8.07-1.148Z"/><path fill="#172E42" d="m387.313 269.75 3.748-.063 3.615-.015 3.31-.028c3.691.436 6.367 1.709 9.014 4.356.458 3.972.458 6.25-1.648 9.7-4.523 4.204-11.618 2.97-17.352 2.863l-3.852.033c-10.676-.085-10.676-.085-15.148-4.596-1.063-3.5-1.063-3.5-1-7 5.063-6.635 11.639-5.218 19.313-5.25Z"/><path fill="#FDF4E4" d="M393 169c14.2-.569 14.2-.569 19 3 3.05 2.889 3.912 4.375 4.5 8.563-.5 3.437-.5 3.437-2.313 5.812-4.054 3.012-7.976 2.777-12.812 2.75l-2.102.012c-5.146-.01-5.146-.01-6.273-1.137a62.92 62.92 0 0 1-.098-4.254l.01-2.588.026-2.72.013-2.733c.012-2.235.028-4.47.049-6.705Z"/><path fill="#172F42" d="m150.938 223.625 2.17-.074c3.471-.02 5.513.178 8.369 2.219 2.496 3.655 2.008 5.869 1.523 10.23-1.47 2.398-2.477 2.83-5.125 3.688C145.51 241.031 145.51 241.031 140 237c-1.75-3.353-2.233-5.067-1.313-8.75 2.92-5.006 7.06-4.616 12.25-4.625Z"/><path fill="#FDF4E4" d="M393 134c13.125-.67 13.125-.67 16.813 2 2.104 2.886 2.592 3.701 2.812 7.063-.672 4.232-1.24 5.448-4.625 7.937-4.262 2.13-10.408 1.045-15 1v-18Z"/><path fill="#172F42" d="M429 271c3.7 1.4 3.7 1.4 5 4 .451 6.204.451 6.204-1.063 8.875-2.95 1.713-5.557 1.947-8.937 2.125-3.398-1.102-3.947-1.921-6-5 .218-6.102.218-6.102 2.688-8.938 2.99-1.373 5.05-1.402 8.312-1.062Z"/><path fill="#193043" d="M292 30c2 1.688 2 1.688 3 4-.91 3.821-1.673 4.782-5 7-3.322-.324-4.608-.608-7-3-.313-3-.313-3 0-6 3.47-2.314 4.918-2.51 9-2ZM291 346c1.875 1.063 1.875 1.063 3 3-.313 3.688-.313 3.688-1 7-6.425 1.334-6.425 1.334-8.938-.125-1.423-2.511-1.489-4.03-1.062-6.875 2.144-3.272 4.232-3.565 8-3Z"/><path fill="#172F42" d="M347.125 274.313C349 275 349 275 350 276c.04 1.666.043 3.334 0 5-2.313 1.125-2.313 1.125-5 2l-3-2c-.375-2.5-.375-2.5 0-5 3-2 3-2 5.125-1.688ZM233 274c2.625.375 2.625.375 5 1 .625 1.813.625 1.813 1 4l-2 3c-2.563.25-2.563.25-5 0-1-1-1-1-1.188-3.438C231 276 231 276 233 274Z"/></svg>